<?xml version="1.0" standalone="no"?>
<!DOCTYPE svg PUBLIC "-//W3C//DTD SVG 20010904//EN"
 "http://www.w3.org/TR/2001/REC-SVG-20010904/DTD/svg10.dtd">
<svg version="1.0" xmlns="http://www.w3.org/2000/svg"
 width="300.000000pt" height="121.000000pt" viewBox="0 0 300.000000 121.000000"
 preserveAspectRatio="xMidYMid meet">

<g transform="translate(0.000000,121.000000) scale(0.100000,-0.100000)"
fill="#000000" stroke="none">
<path d="M440 780 l0 -139 46 -57 c26 -31 57 -73 70 -92 l24 -35 0 87 c0 47 3
86 7 86 4 0 52 -44 106 -97 70 -69 97 -91 91 -73 -17 58 -24 98 -24 149 l0 54
-122 120 c-68 66 -133 123 -146 128 -52 20 -52 19 -52 -131z"/>
<path d="M934 736 c-23 -7 -62 -27 -88 -45 l-46 -32 1 -62 c1 -73 13 -110 56
-171 60 -85 177 -133 303 -124 74 6 113 26 136 69 29 56 24 59 -93 59 -60 0
-125 5 -146 11 -42 11 -110 66 -104 83 2 6 39 13 85 16 75 5 85 9 112 35 16
17 32 42 35 58 l7 27 -121 0 c-71 0 -121 4 -121 10 0 5 14 25 31 45 35 40 26
44 -47 21z"/>
</g>
</svg>
